HIERARCHY
ROOT Hips
{
	OFFSET 0.000000 0.000000 0.000000
	CHANNELS 6 Xposition Yposition Zposition Xrotation Yrotation Zrotation
	JOINT LeftUpLeg_virtual
	{
		OFFSET 0.000000 0.000000 0.000000
		CHANNELS 3 Xrotation Yrotation Zrotation
		JOINT LeftUpLeg
		{
			OFFSET 13.026900 -6.336304 -1.092800
			CHANNELS 3 Xrotation Yrotation Zrotation
			JOINT LeftLeg
			{
				OFFSET 0.524474 -46.096886 9.782700
				CHANNELS 3 Xrotation Yrotation Zrotation
				JOINT LeftFoot
				{
					OFFSET -0.524474 -53.427422 -12.948200
					CHANNELS 3 Xrotation Yrotation Zrotation
					JOINT LeftToeBase
					{
						OFFSET 0.192200 -14.009700 16.364100
						CHANNELS 3 Xrotation Yrotation Zrotation
						JOINT LeftToe_End
						{
							OFFSET -1.784700 -0.561700 9.474800
							CHANNELS 3 Xrotation Yrotation Zrotation
							End Site
							{
								OFFSET 0 0 0
							}
						}
					}
				}
			}
		}
	}
	JOINT RightUpLeg_virtual
	{
		OFFSET 0.000000 0.000000 0.000000
		CHANNELS 3 Xrotation Yrotation Zrotation
		JOINT RightUpLeg
		{
			OFFSET -12.883000 -6.336304 -1.092800
			CHANNELS 3 Xrotation Yrotation Zrotation
			JOINT RightLeg
			{
				OFFSET -0.524587 -46.096825 9.782800
				CHANNELS 3 Xrotation Yrotation Zrotation
				JOINT RightFoot
				{
					OFFSET 0.524587 -53.427383 -12.948300
					CHANNELS 3 Xrotation Yrotation Zrotation
					JOINT RightToeBase
					{
						OFFSET -0.192200 -14.009700 16.364100
						CHANNELS 3 Xrotation Yrotation Zrotation
						JOINT RightToe_End
						{
							OFFSET 1.784700 -0.561700 9.474800
							CHANNELS 3 Xrotation Yrotation Zrotation
							End Site
							{
								OFFSET 0 0 0
							}
						}
					}
				}
			}
		}
	}
	JOINT Spine_virtual
	{
		OFFSET 0.000000 0.000000 0.000000
		CHANNELS 3 Xrotation Yrotation Zrotation
		JOINT Spine
		{
			OFFSET 0.072000 7.257294 -0.789700
			CHANNELS 3 Xrotation Yrotation Zrotation
			JOINT Spine1
			{
				OFFSET 0.000000 12.508769 -0.658067
				CHANNELS 3 Xrotation Yrotation Zrotation
				JOINT Spine1_split
				{
					OFFSET 0.000000 12.508769 -0.658067
					CHANNELS 3 Xrotation Yrotation Zrotation
					JOINT Spine2
					{
						OFFSET 0.000000 12.508769 -0.658067
						CHANNELS 3 Xrotation Yrotation Zrotation
						JOINT Neck_virtual
						{
							OFFSET 0.000000 0.000000 0.000000
							CHANNELS 3 Xrotation Yrotation Zrotation
							JOINT Neck
							{
								OFFSET 0.000000 14.033295 7.520400
								CHANNELS 3 Xrotation Yrotation Zrotation
								JOINT Head
								{
									OFFSET 0.000000 8.198502 5.703100
									CHANNELS 3 Xrotation Yrotation Zrotation
									JOINT HeadTop_End
									{
										OFFSET 0.000000 17.760803 13.332701
										CHANNELS 3 Xrotation Yrotation Zrotation
										End Site
										{
											OFFSET 0 0 0
										}
									}
								}
							}
						}
						JOINT LeftShoulder_virtual
						{
							OFFSET 0.000000 0.000000 0.000000
							CHANNELS 3 Xrotation Yrotation Zrotation
							JOINT LeftShoulder
							{
								OFFSET 6.292450 5.785301 -0.669000
								CHANNELS 3 Xrotation Yrotation Zrotation
								JOINT LeftShoulder_split
								{
									OFFSET 6.292450 5.785301 -0.669000
									CHANNELS 3 Xrotation Yrotation Zrotation
									JOINT LeftArm
									{
										OFFSET 13.907140 -6.093903 1.965100
										CHANNELS 3 Xrotation Yrotation Zrotation
										JOINT LeftForeArm
										{
											OFFSET 34.140198 0.000000 0.000000
											CHANNELS 3 Xrotation Yrotation Zrotation
											JOINT LeftHand
											{
												OFFSET 40.960209 0.000000 0.000000
												CHANNELS 3 Xrotation Yrotation Zrotation
												End Site
												{
													OFFSET 0 0 0
												}
											}
										}
									}
								}
							}
						}
						JOINT RightShoulder_virtual
						{
							OFFSET 0.000000 0.000000 0.000000
							CHANNELS 3 Xrotation Yrotation Zrotation
							JOINT RightShoulder
							{
								OFFSET -6.292450 5.785301 -0.669000
								CHANNELS 3 Xrotation Yrotation Zrotation
								JOINT RightShoulder_split
								{
									OFFSET -6.292450 5.785301 -0.669000
									CHANNELS 3 Xrotation Yrotation Zrotation
									JOINT RightArm
									{
										OFFSET -13.907140 -6.093903 1.965100
										CHANNELS 3 Xrotation Yrotation Zrotation
										JOINT RightForeArm
										{
											OFFSET -34.140198 0.000000 0.000000
											CHANNELS 3 Xrotation Yrotation Zrotation
											JOINT RightHand
											{
												OFFSET -40.960209 0.000000 0.000000
												CHANNELS 3 Xrotation Yrotation Zrotation
												End Site
												{
													OFFSET 0 0 0
												}
											}
										}
									}
								}
							}
						}
					}
				}
			}
		}
	}
}
MOTION
Frames: 5
Frame Time: 0.03333333
6.536688 87.247520 163.912872 0.000000 0.000000 0.000000 6.281777 -18.791536 2.712192 20.743228 30.025921 12.343745 37.581224 14.795059 -5.751616 -23.458276 -3.854665 -28.045546 -29.438518 1.558288 -8.054104 0.000000 0.000000 0.000000 6.281777 -18.791536 2.712192 -71.826706 -4.637456 -8.769224 57.137958 2.426964 -7.663334 7.306933 8.617540 5.026395 -2.924135 2.984496 1.673266 0.000000 0.000000 0.000000 6.281777 -18.791536 2.712192 2.296875 -4.692438 -0.231025 4.701312 -6.072153 0.825286 0.000000 0.000000 0.000000 0.000000 0.000000 0.000000 4.701331 -6.072133 0.825278 10.491354 0.826944 14.017712 -3.989683 7.552077 -19.237002 0.000000 0.000000 0.000000 4.701331 -6.072133 0.825278 -3.202946 -13.805888 -19.510623 0.000000 0.000000 0.000000 -49.174743 -6.616416 -30.495517 -15.032775 -67.111260 17.775579 0.000000 0.000000 0.000000 4.701331 -6.072133 0.825278 -0.201931 -1.407182 -2.611449 0.000000 0.000000 0.000000 -25.414649 43.192655 15.264537 43.319054 8.483361 -4.892905 0.000000 0.000000 0.000000 
5.048616 87.979416 169.913086 0.000000 0.000000 0.000000 10.228278 -17.613600 2.124714 21.093381 33.074426 13.717238 31.451409 17.308854 -5.864502 -17.426068 -6.181977 -28.416213 -34.766831 -1.082553 -11.336278 0.000000 0.000000 0.000000 10.228278 -17.613600 2.124714 -73.118650 -7.156388 -9.759309 60.466893 4.688334 -7.664502 1.618842 6.330262 5.182430 -2.924225 2.984542 1.673305 0.000000 0.000000 0.000000 10.228278 -17.613600 2.124714 2.266227 -6.542144 0.290997 4.899763 -10.154805 2.662431 0.000000 0.000000 0.000000 0.000000 0.000000 0.000000 4.899742 -10.154737 2.662415 8.502552 4.160263 15.381250 -1.540124 11.907269 -20.331223 0.000000 0.000000 0.000000 4.899742 -10.154737 2.662415 -5.170238 -18.664291 -18.158314 0.000000 0.000000 0.000000 -46.432811 -18.052736 -34.485588 -9.204844 -38.217046 16.317057 0.000000 0.000000 0.000000 4.899742 -10.154737 2.662415 0.248731 -2.144189 4.457621 0.000000 0.000000 0.000000 -14.470975 21.706650 4.671653 37.782257 8.308578 -4.381100 0.000000 0.000000 0.000000 
3.270632 89.125023 176.070496 0.000000 0.000000 0.000000 13.037966 -17.099582 1.536621 21.726309 35.583383 15.184740 25.598560 20.241619 -6.060154 -5.424498 -9.203262 -28.757224 -42.693262 -5.484977 -12.706145 0.000000 0.000000 0.000000 13.037966 -17.099582 1.536621 -71.967367 -8.697356 -9.708119 62.575488 6.289144 -7.627522 -4.064016 4.109790 5.259318 -2.924279 2.984575 1.673347 0.000000 0.000000 0.000000 13.037966 -17.099582 1.536621 2.186970 -7.898750 0.113639 5.005435 -13.331984 3.278265 0.000000 0.000000 0.000000 0.000000 0.000000 0.000000 5.005473 -13.331927 3.278248 6.051128 7.224995 16.300537 0.372252 15.500517 -20.487820 0.000000 0.000000 0.000000 5.005473 -13.331927 3.278248 -5.462533 -21.822302 -15.277260 0.000000 0.000000 0.000000 -41.539855 -28.186700 -42.662697 -9.093027 -26.803735 12.045796 0.000000 0.000000 0.000000 5.005473 -13.331927 3.278248 0.571899 -3.041687 8.393503 0.000000 0.000000 0.000000 -12.235268 14.739603 3.552606 31.986889 9.211515 -2.529617 0.000000 0.000000 0.000000 
1.798384 89.805672 181.591476 0.000000 0.000000 0.000000 15.257024 -23.139574 0.830009 23.101465 37.259607 14.504095 21.752831 21.812267 -6.399280 14.288538 -12.316558 -24.263392 -49.630408 -7.814617 -12.159708 0.000000 0.000000 0.000000 15.257024 -23.139574 0.830009 -69.586322 -7.563131 -3.496537 62.572722 5.425810 -7.673777 -7.639813 4.514387 6.012859 -2.924378 2.984607 1.673395 0.000000 0.000000 0.000000 15.257024 -23.139574 0.830009 2.119448 -8.453412 -0.033645 4.996718 -14.597205 3.473519 0.000000 0.000000 0.000000 0.000000 0.000000 0.000000 4.996705 -14.597159 3.473524 3.275431 10.090228 17.157579 2.001214 18.625460 -20.506444 0.000000 0.000000 0.000000 4.996705 -14.597159 3.473524 -5.377034 -23.703596 -13.318976 0.000000 0.000000 0.000000 -42.422360 -33.040320 -48.437775 -9.158995 -21.147553 7.965490 0.000000 0.000000 0.000000 4.996705 -14.597159 3.473524 0.640801 -4.012255 9.540031 0.000000 0.000000 0.000000 -11.078685 12.213159 3.421795 25.842362 9.919219 -0.269012 0.000000 0.000000 0.000000 
1.254709 89.058487 185.511215 0.000000 0.000000 0.000000 16.234082 -32.162104 -0.214145 17.590751 37.057796 16.058926 29.708314 21.031160 -5.857128 25.242211 -13.575560 -13.268925 -50.799737 3.513318 -19.501599 0.000000 0.000000 0.000000 16.234082 -32.162104 -0.214145 -68.421024 -5.906952 4.046581 62.909922 4.650563 -7.782908 -9.312644 6.492193 6.947350 -2.924468 2.984627 1.673430 0.000000 0.000000 0.000000 16.234082 -32.162104 -0.214145 2.135776 -8.491352 0.329682 4.901193 -14.438185 3.413748 0.000000 0.000000 0.000000 0.000000 0.000000 0.000000 4.901234 -14.438137 3.413737 0.438226 12.660388 17.929923 3.355482 21.266404 -20.351616 0.000000 0.000000 0.000000 4.901234 -14.438137 3.413737 -5.157790 -24.333222 -12.292904 0.000000 0.000000 0.000000 -44.167767 -34.537658 -52.409841 -9.134705 -17.605774 3.835013 0.000000 0.000000 0.000000 4.901234 -14.438137 3.413737 0.571547 -4.957463 9.352155 0.000000 0.000000 0.000000 -10.481200 10.565234 3.211357 19.502999 10.395750 1.972029 0.000000 0.000000 0.000000 
